<?xml version="1.0" encoding="UTF-8" standalone="no"?>
<!-- Created with Inkscape (http://www.inkscape.org/) -->

<svg
   xmlns:dc="http://purl.org/dc/elements/1.1/"
   xmlns:cc="http://creativecommons.org/ns#"
   xmlns:rdf="http://www.w3.org/1999/02/22-rdf-syntax-ns#"
   xmlns:svg="http://www.w3.org/2000/svg"
   xmlns="http://www.w3.org/2000/svg"
   xmlns:sodipodi="http://sodipodi.sourceforge.net/DTD/sodipodi-0.dtd"
   xmlns:inkscape="http://www.inkscape.org/namespaces/inkscape"
   width="2000"
   height="200.00005"
   id="svg2"
   version="1.1"
   inkscape:version="0.48.4 r9939"
   sodipodi:docname="icons.svg">
  <defs
     id="defs4" />
  <sodipodi:namedview
     id="base"
     pagecolor="#ffffff"
     bordercolor="#666666"
     borderopacity="1.0"
     inkscape:pageopacity="0"
     inkscape:pageshadow="2"
     inkscape:zoom="0.25"
     inkscape:cx="1134.3949"
     inkscape:cy="648.71493"
     inkscape:document-units="px"
     inkscape:current-layer="layer1"
     showgrid="false"
     inkscape:window-width="1366"
     inkscape:window-height="705"
     inkscape:window-x="-8"
     inkscape:window-y="-8"
     inkscape:window-maximized="1"
     inkscape:snap-object-midpoints="true"
     inkscape:snap-center="true"
     inkscape:snap-bbox="true"
     inkscape:bbox-paths="true"
     fit-margin-top="0"
     fit-margin-left="0"
     fit-margin-right="0"
     fit-margin-bottom="0" />
  <metadata
     id="metadata7">
    <rdf:RDF>
      <cc:Work
         rdf:about="">
        <dc:format>image/svg+xml</dc:format>
        <dc:type
           rdf:resource="http://purl.org/dc/dcmitype/StillImage" />
        <dc:title />
      </cc:Work>
    </rdf:RDF>
  </metadata>
  <g
     inkscape:label="Camada 1"
     inkscape:groupmode="layer"
     id="layer1"
     transform="translate(0,-852.36216)">
    <g
       id="g3420"
       transform="translate(0,-7.3828126e-6)"
       style="fill:#ffffff;fill-opacity:1">
      <rect
         style="fill:#ffffff;fill-opacity:1;stroke:none"
         id="rect2991"
         width="200"
         height="40"
         x="0"
         y="852.36218" />
      <rect
         y="932.36218"
         x="0"
         height="40"
         width="200"
         id="rect3005"
         style="fill:#ffffff;fill-opacity:1;stroke:none" />
      <rect
         style="fill:#ffffff;fill-opacity:1;stroke:none"
         id="rect3007"
         width="200"
         height="40"
         x="0"
         y="1012.3622" />
    </g>
    <path
       style="fill:#ffffff;fill-opacity:1;stroke:none"
       d="m 300,852.36216 0,200.00004 200,0 0,-200.00004 -200,0 z m 151.7188,20 28.2812,0 0,28.28125 -84.6875,84.68745 -28.2812,-28.2812 84.6875,-84.6875 z m -91.7813,91.75 14.1563,14.1562 14.125,14.125 -17.6563,3.5625 -17.6875,3.5313 3.5313,-17.6875 3.5312,-17.6875 z"
       id="rect3216"
       inkscape:connector-curvature="0" />
    <path
       style="fill:#ffffff;fill-opacity:1;stroke:none"
       d="m 900,852.36216 0,200.00004 200,0 0,-200.00004 -200,0 z m 180,20 0,56.59375 -61,60.96875 L 990.7187,1018.206 962.4375,989.92466 920,947.48716 948.2812,919.20591 990.7187,961.64341 1080,872.36216 z"
       id="rect3066"
       inkscape:connector-curvature="0" />
    <path
       style="fill:#ffffff;fill-opacity:1;stroke:none"
       d="m 600,852.36217 0,200.00003 200,0 0,-200.00003 -200,0 z m 100,40 c 33.1371,0 60,26.86292 60,60 0,11.11946 -3.0409,21.50891 -8.3125,30.4375 L 780,1011.1434 l 0,21.2188 -21.2187,0 -28.2813,-28.3125 c -8.9351,5.2823 -19.3683,8.3125 -30.5,8.3125 -33.1371,0 -60,-26.86295 -60,-60.00003 0,-33.13708 26.8629,-60 60,-60 z m 0,30 c -16.5685,0 -30,13.43146 -30,30 0,16.56854 13.4315,30 30,30 16.5685,0 30,-13.43146 30,-30 0,-16.56854 -13.4315,-30 -30,-30 z"
       id="rect3014-4"
       inkscape:connector-curvature="0" />
    <g
       id="g4231"
       transform="translate(1797.8999,275.37024)"
       style="fill:#ffffff;fill-opacity:1">
      <path
         sodipodi:nodetypes="zczczzczcz"
         id="rect3298"
         d="m 102.10013,602.99194 c -42.687494,0 -99.9999966,74 -99.9999966,74 0,0 57.3125026,74 99.9999966,74 42.68749,0 100,-74 100,-74 0,0 -57.31251,-74 -100,-74 z m 0,22 c 29.88125,0 72,52 72,52 0,0 -42.11875,52 -72,52 -29.881246,0 -71.999997,-52 -71.999997,-52 0,0 42.118751,-52 71.999997,-52 z"
         style="fill:#ffffff;fill-opacity:1;stroke:none"
         inkscape:connector-curvature="0" />
      <path
         transform="matrix(1.4693128,0,0,1.4693128,-63.614153,-351.3352)"
         d="m 140.00714,699.86945 c 0,15.03518 -12.18842,27.22361 -27.22361,27.22361 -15.035184,0 -27.223611,-12.18843 -27.223611,-27.22361 0,-15.03519 12.188427,-27.22362 27.223611,-27.22362 15.03519,0 27.22361,12.18843 27.22361,27.22362 z"
         sodipodi:ry="27.223612"
         sodipodi:rx="27.223612"
         sodipodi:cy="699.86945"
         sodipodi:cx="112.78353"
         id="path3316"
         style="fill:#ffffff;fill-opacity:1;stroke:none"
         sodipodi:type="arc" />
    </g>
    <path
       style="fill:#ffffff;fill-opacity:1;stroke:none"
       d="m 1200,852.36217 0,200.00003 200,0 0,-200.00003 -200,0 z m 120,30 55,0 c 2.77,0 5,2.23 5,5 l 0,20 c 0,2.77 -2.23,5 -5,5 l -30,0 0,35 30,0 c 2.77,0 5,2.23 5,5 l 0,20 c 0,2.77 -2.23,5 -5,5 l -30,0 0,55.00003 -30,0 0,-55.00003 -30,0 c -2.77,0 -5,-2.23 -5,-5 l 0,-20 c 0,-2.77 2.23,-5 5,-5 l 30,0 0,-40 0,-20 c 0,-2.77 2.23,-5 5,-5 z"
       id="rect3352"
       inkscape:connector-curvature="0" />
    <g
       id="g4221"
       style="fill:#808080;fill-opacity:1"
       transform="translate(986.68355,267.74486)">
      <path
         inkscape:connector-curvature="0"
         id="path4212"
         d="m 530.89005,623.75864 c -23.43146,23.43146 -23.43146,61.42135 0,84.85281 23.43146,23.43146 61.42135,23.43146 84.85281,0 23.43146,-23.43146 23.43146,-61.42135 0,-84.85281 -23.43146,-23.43146 -61.42135,-23.43146 -84.85281,0 z m 14.14213,14.14213 c 15.62097,-15.62097 40.94757,-15.62097 56.56855,0 15.62097,15.62098 15.62097,40.94758 0,56.56855 -15.62098,15.62097 -40.94758,15.62097 -56.56855,0 -15.62097,-15.62097 -15.62097,-40.94757 0,-56.56855 z"
         style="fill:#808080;fill-opacity:1;stroke:none" />
      <rect
         transform="matrix(0.70710678,-0.70710678,0.70710678,0.70710678,0,0)"
         y="924.44708"
         x="-75.668007"
         height="79"
         width="20"
         id="rect4219"
         style="fill:#808080;fill-opacity:1;stroke:none" />
    </g>
  </g>
</svg>
